<?xml version="1.0" standalone="no"?>
<!DOCTYPE svg PUBLIC "-//W3C//DTD SVG 20010904//EN"
 "http://www.w3.org/TR/2001/REC-SVG-20010904/DTD/svg10.dtd">
<svg version="1.0" xmlns="http://www.w3.org/2000/svg"
 width="980.000000pt" height="982.000000pt" viewBox="0 0 980.000000 982.000000"
 preserveAspectRatio="xMidYMid meet">

<g transform="translate(0.000000,982.000000) scale(0.100000,-0.100000)"
fill="#000000" stroke="none">
<path d="M3820 9800 c-959 -91 -1773 -420 -2465 -998 -130 -109 -406 -389
-511 -517 -469 -578 -740 -1218 -826 -1950 -20 -167 -16 -607 6 -780 93 -732
368 -1359 851 -1942 115 -138 351 -374 484 -483 57 -47 117 -97 134 -111 l30
-25 -137 -615 c-146 -663 -155 -720 -120 -822 21 -62 77 -112 136 -121 102
-15 143 2 969 415 l778 388 113 -24 c309 -65 568 -90 933 -89 301 0 473 13
720 55 789 131 1498 454 2100 958 116 96 369 350 466 466 473 564 757 1201
854 1915 22 158 31 561 16 730 -61 695 -297 1318 -717 1887 -262 354 -657 723
-1044 974 -559 363 -1183 585 -1900 675 -148 18 -724 27 -870 14z m899 -429
c1056 -145 1973 -665 2576 -1461 299 -394 506 -852 600 -1325 78 -394 78 -840
-1 -1235 -227 -1137 -1083 -2107 -2254 -2553 -443 -169 -867 -251 -1355 -264
-338 -8 -605 15 -950 84 -167 34 -185 35 -247 25 -58 -10 -167 -62 -718 -337
-357 -179 -650 -320 -650 -315 0 6 47 223 105 482 65 291 105 494 105 528 0
64 -22 149 -53 200 -31 54 -72 94 -202 198 -148 119 -403 372 -517 512 -399
494 -638 1037 -724 1647 -21 155 -29 509 -15 673 49 548 229 1060 536 1520
227 339 566 686 910 930 534 378 1208 632 1860 700 55 5 116 12 135 14 19 2
186 3 370 1 274 -2 363 -7 489 -24z"/>
<path d="M8925 5381 c-70 -31 -125 -113 -125 -185 0 -44 26 -98 92 -187 248
-336 410 -719 475 -1124 28 -171 25 -547 -6 -718 -111 -629 -433 -1163 -953
-1580 -152 -122 -201 -209 -201 -357 0 -68 12 -139 62 -354 33 -148 61 -271
61 -273 0 -2 -180 87 -399 197 -220 109 -427 208 -460 220 -80 27 -159 26
-308 -5 -566 -115 -1163 -70 -1693 127 -169 62 -406 178 -530 259 -141 92
-204 119 -273 119 -72 0 -113 -17 -154 -63 -57 -65 -65 -145 -22 -229 15 -30
47 -57 139 -117 758 -501 1685 -679 2605 -500 l110 22 585 -293 c322 -161 609
-301 639 -311 163 -56 253 4 253 170 0 60 -23 175 -107 551 l-106 475 32 25
c19 14 79 64 134 111 434 373 764 886 919 1427 75 262 113 571 103 842 -8 199
-18 289 -58 482 -50 249 -129 471 -254 718 -91 179 -271 450 -345 518 -56 53
-143 66 -215 33z"/>
</g>
</svg>
