<?xml version="1.0" standalone="no"?>
<!DOCTYPE svg PUBLIC "-//W3C//DTD SVG 20010904//EN"
 "http://www.w3.org/TR/2001/REC-SVG-20010904/DTD/svg10.dtd">
<svg version="1.0" xmlns="http://www.w3.org/2000/svg"
 width="200.000000pt" height="200.000000pt" viewBox="0 0 200.000000 200.000000"
 preserveAspectRatio="xMidYMid meet">

<g transform="translate(0.000000,200.000000) scale(0.100000,-0.100000)"
fill="#000000" stroke="none">
<path d="M527 1673 c-4 -3 -7 -30 -7 -58 0 -52 0 -52 -40 -64 -51 -15 -75 -51
-75 -111 0 -60 24 -96 75 -111 55 -17 55 -44 -1 -53 -59 -9 -114 -40 -146 -83
-28 -36 -28 -37 -31 -211 -3 -169 -3 -175 19 -198 12 -13 31 -24 41 -24 17 0
18 -13 18 -195 0 -195 0 -196 25 -220 26 -27 64 -32 95 -13 16 10 24 10 40 0
31 -19 69 -14 95 13 25 24 25 25 25 229 l0 206 518 2 517 3 3 73 c3 67 1 74
-17 79 -20 5 -21 13 -23 372 l-3 366 -561 3 c-308 1 -564 -1 -567 -5z m1093
-393 c0 -353 0 -360 -20 -360 -19 0 -20 7 -20 130 0 80 -4 130 -10 130 -6 0
-10 -50 -10 -130 l0 -130 -340 0 c-220 0 -340 -4 -340 -10 0 -6 137 -10 390
-10 l390 0 0 -40 0 -40 -500 0 -500 0 0 120 0 121 23 -12 c12 -7 34 -20 49
-30 21 -15 45 -19 115 -19 82 0 92 2 112 24 15 15 21 33 19 50 -2 22 19 48
132 161 73 74 131 138 127 142 -4 4 -68 -53 -141 -126 -120 -119 -135 -132
-154 -122 -11 6 -48 11 -82 11 -58 0 -63 2 -127 52 -36 29 -89 60 -117 69 -66
23 -71 45 -19 93 35 31 38 39 38 86 0 47 -3 55 -37 86 -32 29 -38 41 -38 74
l0 40 530 0 530 0 0 -360z m-1045 215 c50 -49 15 -135 -55 -135 -41 0 -80 39
-80 80 0 41 39 80 80 80 19 0 40 -9 55 -25z m18 -266 c20 -5 72 -37 115 -69
78 -58 80 -59 153 -62 71 -3 74 -4 74 -28 0 -24 -2 -25 -82 -28 -80 -3 -82 -2
-144 38 -34 22 -68 39 -73 37 -7 -2 -13 -125 -16 -372 -5 -336 -7 -369 -23
-379 -12 -8 -22 -8 -35 0 -15 10 -18 35 -22 210 -4 168 -7 199 -20 199 -13 0
-16 -31 -20 -199 -4 -175 -7 -200 -22 -210 -13 -8 -23 -8 -35 0 -17 10 -18 41
-21 373 -1 229 -6 361 -12 361 -6 0 -10 -58 -10 -151 l0 -150 -27 3 -28 3 0
172 c0 169 0 172 25 199 52 56 138 77 223 53z"/>
<path d="M660 1590 c0 -6 161 -11 448 -12 l447 -3 3 -47 c4 -60 22 -63 22 -4
0 80 25 76 -476 76 -286 0 -444 -4 -444 -10z"/>
<path d="M1560 1370 c0 -16 5 -30 10 -30 6 0 10 14 10 30 0 17 -4 30 -10 30
-5 0 -10 -13 -10 -30z"/>
<path d="M1560 1260 c0 -33 4 -60 10 -60 6 0 10 27 10 60 0 33 -4 60 -10 60
-6 0 -10 -27 -10 -60z"/>
<path d="M680 910 c0 -5 9 -10 20 -10 11 0 20 5 20 10 0 6 -9 10 -20 10 -11 0
-20 -4 -20 -10z"/>
<path d="M740 910 c0 -5 18 -10 40 -10 22 0 40 5 40 10 0 6 -18 10 -40 10 -22
0 -40 -4 -40 -10z"/>
<path d="M825 731 c-11 -5 -29 -19 -40 -31 -27 -30 -28 -109 -2 -138 18 -20
18 -21 -2 -31 -11 -6 -32 -31 -46 -54 -28 -49 -45 -137 -26 -137 6 0 11 12 11
28 0 39 44 128 72 145 30 18 140 16 164 -4 24 -19 64 -108 64 -141 0 -16 5
-28 10 -28 6 0 10 12 10 28 0 33 40 122 64 141 24 20 134 22 164 4 28 -17 72
-106 72 -145 0 -16 5 -28 10 -28 6 0 10 12 10 28 0 39 44 128 72 145 30 18
140 16 164 -4 24 -19 64 -108 64 -141 0 -16 5 -28 11 -28 18 0 3 86 -23 131
-12 22 -32 46 -45 54 l-23 15 20 33 c25 40 25 73 1 113 -37 60 -124 69 -172
18 -30 -32 -34 -111 -6 -142 17 -19 17 -20 -5 -34 -13 -9 -32 -32 -43 -52 -11
-20 -22 -36 -25 -36 -3 0 -14 16 -25 36 -11 20 -29 43 -42 51 l-22 15 20 31
c24 40 24 74 0 113 -37 60 -124 69 -172 18 -30 -32 -34 -111 -6 -142 17 -19
17 -20 -5 -34 -13 -9 -32 -32 -43 -52 -11 -20 -22 -36 -25 -36 -3 0 -14 16
-25 36 -11 20 -29 43 -42 51 l-22 15 20 31 c23 39 24 68 4 107 -25 49 -88 72
-140 51z m106 -40 c20 -20 29 -39 29 -61 0 -22 -9 -41 -29 -61 -40 -39 -82
-39 -122 0 -20 20 -29 39 -29 61 0 22 9 41 29 61 40 39 82 39 122 0z m320 0
c20 -20 29 -39 29 -61 0 -22 -9 -41 -29 -61 -40 -39 -82 -39 -122 0 -20 20
-29 39 -29 61 0 22 9 41 29 61 40 39 82 39 122 0z m320 0 c20 -20 29 -39 29
-61 0 -43 -47 -90 -90 -90 -43 0 -90 47 -90 90 0 22 9 41 29 61 40 39 82 39
122 0z"/>
</g>
</svg>
