<?xml version="1.0" standalone="no"?>
<!DOCTYPE svg PUBLIC "-//W3C//DTD SVG 20010904//EN"
 "http://www.w3.org/TR/2001/REC-SVG-20010904/DTD/svg10.dtd">
<svg version="1.0" xmlns="http://www.w3.org/2000/svg"
 width="512.000000pt" height="512.000000pt" viewBox="0 0 512.000000 512.000000"
 preserveAspectRatio="xMidYMid meet">

<g transform="translate(0.000000,512.000000) scale(0.100000,-0.100000)"
fill="#000000" stroke="none">
<path d="M1310 4699 c-264 -29 -512 -203 -634 -446 -14 -28 -38 -91 -52 -140
-23 -75 -27 -107 -27 -218 0 -86 5 -155 17 -204 91 -402 361 -740 653 -816
158 -41 399 8 427 88 13 36 -2 77 -36 96 -24 14 -33 13 -112 -13 -171 -57
-316 -19 -468 124 -118 109 -215 264 -270 430 -40 118 -52 187 -51 300 1 186
66 335 205 465 127 120 266 175 443 175 159 0 289 -46 413 -146 76 -61 109
-68 147 -29 40 39 34 80 -18 129 -158 152 -403 230 -637 205z"/>
<path d="M3635 4700 c-146 -17 -257 -57 -376 -136 -126 -85 -158 -146 -104
-199 38 -39 71 -32 147 29 124 100 254 146 413 146 187 0 322 -56 455 -190 94
-93 135 -160 171 -280 81 -267 -52 -670 -299 -900 -103 -97 -195 -142 -303
-148 -69 -4 -92 -1 -165 24 -79 26 -88 27 -112 13 -34 -19 -49 -60 -36 -96 28
-80 269 -129 427 -88 291 76 562 415 653 816 12 49 17 118 17 204 0 111 -4
143 -27 218 -46 155 -116 268 -230 374 -169 159 -404 238 -631 213z"/>
<path d="M2457 4479 c-204 -21 -403 -118 -550 -266 -88 -89 -130 -149 -183
-258 -126 -264 -121 -564 15 -891 177 -422 498 -694 821 -694 323 0 644 272
821 695 136 325 141 627 15 890 -53 109 -95 169 -183 258 -151 153 -343 244
-563 267 -52 5 -99 9 -105 8 -5 0 -45 -4 -88 -9z m289 -179 c268 -68 483 -280
556 -549 26 -96 28 -281 4 -389 -54 -246 -175 -473 -336 -632 -271 -268 -551
-268 -820 0 -162 161 -282 386 -336 632 -25 113 -23 294 4 391 76 269 287 478
552 546 104 28 270 28 376 1z"/>
<path d="M716 2959 c-130 -74 -189 -120 -306 -238 -199 -199 -326 -433 -379
-696 -23 -114 -37 -270 -27 -308 11 -44 210 -201 381 -300 207 -119 286 -135
313 -59 19 56 -4 82 -122 141 -107 53 -307 181 -379 244 l-38 33 11 94 c41
373 244 703 557 907 96 63 91 63 178 -8 69 -55 214 -125 310 -149 82 -21 235
-28 312 -15 104 19 224 63 261 97 41 39 24 106 -32 127 -21 9 -40 5 -99 -18
-97 -38 -162 -51 -260 -51 -171 0 -327 68 -484 211 -59 54 -86 52 -197 -12z"/>
<path d="M4201 2966 c-109 -97 -222 -160 -339 -191 -118 -30 -306 -13 -404 36
-74 38 -148 11 -148 -53 0 -43 10 -58 59 -82 208 -104 486 -104 696 1 61 31
160 97 197 131 25 23 29 24 59 12 54 -23 180 -118 262 -198 216 -212 339 -474
371 -789 l7 -61 -68 -55 c-150 -120 -348 -231 -538 -302 -55 -20 -108 -44
-117 -53 -45 -46 -11 -132 53 -132 34 0 142 38 264 93 183 82 398 221 509 329
l59 57 -6 103 c-30 485 -298 913 -721 1152 -105 60 -130 60 -195 2z"/>
<path d="M1790 2507 c-177 -101 -319 -215 -443 -355 -237 -269 -381 -621 -394
-967 l-6 -131 49 -46 c142 -136 383 -291 604 -388 307 -137 619 -202 960 -202
341 0 653 65 960 202 220 97 459 251 604 388 l49 46 -6 131 c-21 546 -342
1048 -849 1328 -95 53 -117 51 -203 -24 -179 -157 -354 -229 -555 -229 -201 0
-376 72 -555 229 -88 76 -109 78 -215 18z m183 -200 c368 -280 806 -280 1175
1 62 47 88 61 103 57 51 -16 238 -155 323 -238 252 -249 409 -579 432 -913 l7
-91 -74 -60 c-518 -420 -1217 -580 -1879 -428 -318 73 -627 224 -879 428 l-74
60 7 91 c32 450 300 879 702 1121 32 19 62 35 66 35 5 0 45 -28 91 -63z"/>
<path d="M772 1367 c-61 -65 20 -171 94 -123 34 23 46 58 33 96 -19 54 -88 69
-127 27z"/>
</g>
</svg>
