<?xml version="1.0" standalone="no"?>
<!DOCTYPE svg PUBLIC "-//W3C//DTD SVG 20010904//EN"
 "http://www.w3.org/TR/2001/REC-SVG-20010904/DTD/svg10.dtd">
<svg version="1.0" xmlns="http://www.w3.org/2000/svg"
 width="512.000000pt" height="512.000000pt" viewBox="0 0 512.000000 512.000000"
 preserveAspectRatio="xMidYMid meet">

<g transform="translate(0.000000,512.000000) scale(0.100000,-0.100000)"
fill="#000000" stroke="none">
<path d="M2465 4191 c-27 -13 -282 -261 -807 -787 l-766 -769 -17 -59 c-15
-50 -16 -68 -6 -111 22 -99 105 -164 209 -165 79 0 115 21 227 130 l101 100
128 -797 c70 -439 132 -803 138 -810 15 -19 1760 -19 1776 -1 9 11 262 1556
262 1598 0 8 47 -32 103 -88 114 -111 150 -132 229 -132 149 1 245 132 203
278 -16 57 -23 63 -783 826 -525 526 -780 774 -807 787 -24 11 -62 19 -95 19
-33 0 -71 -8 -95 -19z m175 -82 c14 -10 366 -359 782 -776 514 -515 759 -767
764 -786 25 -103 -80 -203 -184 -175 -28 8 -70 43 -170 142 -73 72 -134 132
-136 134 -11 9 -46 -21 -46 -38 0 -19 -245 -1565 -255 -1607 l-5 -23 -830 0
-830 0 -5 23 c-3 12 -63 384 -134 826 -122 766 -133 820 -162 821 -3 0 -66
-60 -140 -134 -101 -101 -143 -136 -171 -144 -104 -28 -209 72 -184 175 5 19
254 275 780 801 817 818 794 797 871 784 17 -3 41 -13 55 -23z"/>
<path d="M2062 3448 c-167 -167 -308 -311 -313 -320 -13 -24 -1 -48 25 -48 30
0 636 606 636 636 0 19 -17 34 -38 34 -3 0 -143 -136 -310 -302z"/>
<path d="M1611 2992 c-46 -56 -52 -87 -19 -98 19 -6 31 3 71 47 54 60 59 92
16 97 -21 2 -35 -7 -68 -46z"/>
<path d="M2450 2774 c-159 -43 -284 -182 -313 -348 -47 -278 211 -536 489
-489 233 40 395 263 357 489 -43 252 -290 413 -533 348z m260 -90 c74 -33 142
-103 176 -178 23 -51 28 -75 28 -146 0 -71 -5 -95 -28 -146 -35 -77 -103 -145
-181 -181 -50 -23 -73 -27 -145 -27 -72 0 -95 4 -145 27 -78 36 -146 104 -181
181 -23 51 -28 75 -28 146 0 72 4 94 27 145 48 103 145 183 251 205 64 14 164
2 226 -26z"/>
<path d="M2510 1663 c-24 -9 -61 -46 -76 -75 -60 -115 82 -246 194 -178 117
72 80 247 -55 256 -26 2 -55 1 -63 -3z m100 -83 c11 -11 20 -33 20 -50 0 -17
-9 -39 -20 -50 -11 -11 -33 -20 -50 -20 -17 0 -39 9 -50 20 -11 11 -20 33 -20
50 0 17 9 39 20 50 11 11 33 20 50 20 17 0 39 -9 50 -20z"/>
</g>
</svg>
