<svg xmlns="http://www.w3.org/2000/svg" x="0px" y="0px"
width="100" height="100"
viewBox="0 0 172 172"
style=" fill:#000000;"><g fill="none" fill-rule="nonzero" stroke="none" stroke-width="1" stroke-linecap="butt" stroke-linejoin="miter" stroke-miterlimit="10" stroke-dasharray="" stroke-dashoffset="0" font-family="none" font-weight="none" font-size="none" text-anchor="none" style="mix-blend-mode: normal"><path d="M0,172v-172h172v172z" fill="none"></path><path d="M86,172c-47.49649,0 -86,-38.50351 -86,-86v0c0,-47.49649 38.50351,-86 86,-86v0c47.49649,0 86,38.50351 86,86v0c0,47.49649 -38.50351,86 -86,86z" fill="#cccccc"></path><g fill="#000000"><path d="M91.34954,29.24c-24.88413,0 -34.12524,19.22765 -27.01079,35.51743c-0.88794,0.59196 -2.31302,2.44456 -2.01704,5.70033c0.59196,5.91957 3.25576,7.33369 4.73566,7.62967c0.59196,5.62359 4.15466,12.17897 6.22651,13.06691c0,3.84772 -0.05481,7.0706 -0.35079,11.22526c-4.53834,11.91588 -33.54424,9.15341 -37.27138,30.51868c-0.16443,0.93178 0.80024,2.98171 2.71862,2.98171h95.32704c2.85016,0 2.79535,-2.10474 2.63092,-3.06941c-3.79291,-21.27757 -32.73304,-18.52607 -37.27138,-30.43099c-0.29598,-4.45064 -0.35079,-7.37754 -0.35079,-11.22526c2.07185,-0.88794 5.37147,-7.73929 5.96342,-13.06691c1.47989,0 3.84772,-1.78683 4.73566,-7.71737c0.29598,-3.25576 -0.92082,-5.31665 -2.10474,-5.61263c4.73566,-5.91957 3.88061,-30.16789 -13.59309,-30.16789zM58.37533,43.27158c-18.73435,0.3179 -26.94501,15.22645 -21.31046,27.97546c-0.60292,0.29598 -1.78683,1.86357 -1.49086,4.56026c0.60292,4.80143 2.38975,5.96342 3.59559,5.96342c0.59196,4.49449 3.2448,9.53709 4.73566,10.43599c0,2.99267 0.03289,2.90497 -0.26309,6.48961c-2.4336,7.67352 -27.80007,7.10349 -27.80007,25.95842c0,0 0,2.80632 2.80632,2.80632h12.71612c4.28621,-12.12416 15.939,-16.79405 24.73066,-20.25809c4.84528,-1.90742 9.81114,-3.83676 11.31296,-6.22651c0.16443,-2.609 0.25213,-4.82336 0.26309,-7.27888c-2.66381,-3.04748 -4.64796,-7.7941 -5.61263,-11.83914c-2.28013,-1.68817 -4.74662,-4.93298 -5.34954,-10.96217c-0.26309,-2.86113 0.33983,-5.23992 1.31546,-7.10349c-2.22532,-6.91713 -2.08281,-14.1412 0.35079,-20.52118zM122.48211,43.27158c-2.68573,0 -5.8538,0.21924 -8.85743,0.70158c2.24724,6.58826 2.33494,14.4591 0.35079,20.0827c0.87697,1.92934 1.28257,4.27525 1.05237,6.84039l-0.0877,0.17539v0.17539c-0.83312,5.51397 -2.86113,8.8684 -5.26184,10.69908c-0.90986,3.79291 -2.76247,8.58338 -5.34954,11.66375c0.01096,2.41168 0.09866,4.58219 0.26309,7.36658c1.50182,2.38975 6.47864,4.3191 11.31296,6.22651c8.7807,3.45308 20.43349,8.13393 24.73066,20.25809h12.71612c2.80632,0 2.80632,-2.71862 2.80632,-2.71862c0.01096,-21.7051 -24.01812,-16.56384 -27.62467,-26.48461c-0.30694,-3.31057 -0.35079,-3.00363 -0.35079,-6.31421c1.50182,-0.8989 4.26428,-5.95246 4.56026,-10.17289c1.20584,0 2.99267,-1.23872 3.59559,-6.05112c0.29598,-2.40072 -0.59196,-4.17659 -1.49086,-4.47257c3.61752,-4.81239 3.02556,-23.76599 -10.52368,-23.76599z"></path></g></g></svg>