<?xml version="1.0" standalone="no"?>
<!DOCTYPE svg PUBLIC "-//W3C//DTD SVG 20010904//EN"
 "http://www.w3.org/TR/2001/REC-SVG-20010904/DTD/svg10.dtd">
<svg version="1.0" xmlns="http://www.w3.org/2000/svg"
 width="128.000000pt" height="128.000000pt" viewBox="0 0 128.000000 128.000000"
 preserveAspectRatio="xMidYMid meet">

<g transform="translate(0.000000,128.000000) scale(0.100000,-0.100000)"
fill="#ababab" stroke="none">
<path d="M493 1225 c-107 -23 -189 -70 -278 -160 -91 -90 -137 -171 -160 -282
-28 -131 -12 -260 47 -381 45 -93 168 -216 262 -261 167 -79 342 -80 511 0 96
44 217 166 264 263 80 167 80 345 0 512 -46 96 -168 219 -262 263 -122 58
-255 74 -384 46z m261 -45 c99 -25 174 -68 246 -140 72 -72 115 -147 140 -246
25 -98 25 -170 0 -268 -25 -99 -68 -174 -140 -246 -72 -72 -147 -115 -246
-140 -98 -25 -170 -25 -268 0 -99 25 -174 68 -246 140 -72 72 -115 147 -140
246 -25 98 -25 170 0 268 49 191 192 336 382 386 95 25 176 25 272 0z"/>
<path d="M506 1104 c-78 -19 -149 -61 -214 -126 -135 -135 -169 -350 -83 -522
31 -61 82 -126 100 -126 24 0 18 23 -19 72 -63 84 -84 146 -84 258 0 75 5 107
22 150 45 112 131 198 242 241 47 19 110 27 233 29 14 0 7 28 -9 34 -27 10
-126 5 -188 -10z"/>
<path d="M757 1083 c-13 -21 50 -57 74 -42 12 7 12 10 -1 23 -19 18 -66 31
-73 19z"/>
<path d="M875 1019 c-4 -5 13 -31 37 -57 154 -164 169 -388 38 -560 -22 -29
-38 -57 -35 -63 29 -46 133 115 156 241 26 145 -19 294 -121 398 -53 54 -64
60 -75 41z"/>
<path d="M519 852 c-149 -78 -158 -288 -16 -376 198 -122 423 103 301 301 -37
60 -114 103 -184 103 -33 0 -64 -9 -101 -28z m181 -34 c132 -67 132 -249 0
-316 -56 -28 -104 -28 -160 1 -132 66 -132 248 0 315 24 12 60 22 80 22 20 0
56 -10 80 -22z"/>
<path d="M400 311 c-14 -28 -12 -51 5 -51 16 0 35 30 35 54 0 22 -27 20 -40
-3z"/>
<path d="M800 314 c0 -24 19 -54 35 -54 17 0 19 23 5 51 -13 23 -40 25 -40 3z"/>
<path d="M496 268 c-10 -38 -7 -48 13 -48 12 0 20 9 24 27 3 16 3 31 0 35 -9
16 -31 7 -37 -14z"/>
<path d="M707 282 c-3 -4 -3 -19 0 -35 4 -18 12 -27 24 -27 20 0 23 10 13 48
-6 21 -28 30 -37 14z"/>
<path d="M604 267 c-9 -25 0 -62 16 -62 10 0 15 10 15 34 0 36 -21 54 -31 28z"/>
</g>
</svg>
